<?xml version="1.0" encoding="UTF-8" standalone="no"?>
<svg
   xmlns:dc="http://purl.org/dc/elements/1.1/"
   xmlns:cc="http://creativecommons.org/ns#"
   xmlns:rdf="http://www.w3.org/1999/02/22-rdf-syntax-ns#"
   xmlns:svg="http://www.w3.org/2000/svg"
   xmlns="http://www.w3.org/2000/svg"
   xmlns:sodipodi="http://sodipodi.sourceforge.net/DTD/sodipodi-0.dtd"
   xmlns:inkscape="http://www.inkscape.org/namespaces/inkscape"
   version="1.1"
   width="37.28"
   id="slipway"
   viewBox="0 0 50 50"
   fill="blue"
   stroke="none"
   height="37.28"
   sodipodi:version="0.32"
   inkscape:version="0.47pre3 r22311"
   sodipodi:docname="marina.svg"
   inkscape:output_extension="org.inkscape.output.svg.inkscape">
  <metadata
     id="metadata10">
    <rdf:RDF>
      <cc:Work
         rdf:about="">
        <dc:format>image/svg+xml</dc:format>
        <dc:type
           rdf:resource="http://purl.org/dc/dcmitype/StillImage" />
      </cc:Work>
    </rdf:RDF>
  </metadata>
  <defs
     id="defs8">
    <inkscape:perspective
       sodipodi:type="inkscape:persp3d"
       inkscape:vp_x="0 : 18.639999 : 1"
       inkscape:vp_y="0 : 1000 : 0"
       inkscape:vp_z="37.279999 : 18.639999 : 1"
       inkscape:persp3d-origin="18.639999 : 12.426666 : 1"
       id="perspective12" />
    <inkscape:perspective
       id="perspective3838"
       inkscape:persp3d-origin="0.5 : 0.33333333 : 1"
       inkscape:vp_z="1 : 0.5 : 1"
       inkscape:vp_y="0 : 1000 : 0"
       inkscape:vp_x="0 : 0.5 : 1"
       sodipodi:type="inkscape:persp3d" />
  </defs>
  <sodipodi:namedview
     inkscape:window-height="768"
     inkscape:window-width="1274"
     inkscape:pageshadow="2"
     inkscape:pageopacity="0.0"
     guidetolerance="10.0"
     gridtolerance="10.0"
     objecttolerance="10.0"
     borderopacity="1.0"
     bordercolor="#666666"
     pagecolor="#ffffff"
     id="base"
     showgrid="false"
     inkscape:zoom="4.4194174"
     inkscape:cx="-34.900476"
     inkscape:cy="27.902508"
     inkscape:window-x="0"
     inkscape:window-y="0"
     inkscape:current-layer="g3"
     inkscape:window-maximized="0" />
  <g
     transform="translate(0,2.5)"
     id="g3">
    <path
       style="font-size:40px;font-style:normal;font-variant:normal;font-weight:normal;font-stretch:normal;text-align:start;line-height:125%;writing-mode:lr-tb;text-anchor:start;fill:#0000ff;fill-opacity:1;stroke:none;font-family:NPSPICT3;-inkscape-font-specification:NPSPICT3"
       d="m 25.080786,9.3446574 c -0.648568,3e-5 -1.216047,-0.243174 -1.702436,-0.729613 -0.486434,-0.486384 -0.729639,-1.071996 -0.729613,-1.756851 -2.6e-5,-0.648514 0.243179,-1.215715 0.729613,-1.70161 0.486389,-0.48583 1.053868,-0.728757 1.702436,-0.728792 0.684795,3.5e-5 1.270135,0.242962 1.756025,0.728792 0.485834,0.485895 0.728767,1.053096 0.728792,1.70161 -2.5e-5,0.684855 -0.242958,1.270467 -0.728792,1.756851 -0.48589,0.486439 -1.07123,0.729643 -1.756025,0.729613 l 0,0 z M 43.559438,22.581614 c -0.144046,-0.865077 -0.684316,-1.297626 -1.620817,-1.297641 -0.433143,1.5e-5 -0.829416,0.180293 -1.188823,0.540823 l -5.998513,5.619275 c -0.432034,0.359462 -0.648029,0.791456 -0.647994,1.295994 -3.5e-5,0.865107 0.396237,1.423515 1.188818,1.675231 l 1.513641,0.486409 c -0.756309,2.053371 -1.962988,3.809396 -3.620046,5.268073 -1.657124,1.458683 -3.566216,2.404024 -5.727277,2.836018 l 0,-26.635503 c 2.412788,-1.045342 3.619194,-2.8827076 3.619225,-5.5120996 -3.1e-5,-1.620233 -0.585376,-3.015707 -1.756025,-4.186427 -1.17071,-1.1706439 -2.584321,-1.7559839 -4.240841,-1.7560239 -1.621391,4e-5 -3.017137,0.58538 -4.187247,1.7560239 -1.170156,1.17072 -1.755223,2.566194 -1.755203,4.186427 -2e-5,2.629392 1.224524,4.4667576 3.673639,5.5120986 l 0,26.689919 c -2.197393,-0.432 -4.160617,-1.377613 -5.889689,-2.836845 -1.729112,-1.459227 -2.971795,-3.233112 -3.728049,-5.32166 l 1.513647,-0.486409 c 0.791426,-0.251716 1.187149,-0.810124 1.18717,-1.675231 -2.1e-5,-0.468261 -0.197882,-0.900261 -0.593585,-1.295994 L 9.250189,21.824796 C 8.889633,21.464266 8.493361,21.283988 8.061371,21.283973 7.124814,21.283988 6.584545,21.716537 6.440554,22.581614 L 5.14456,30.74012 c -0.03629,0.179179 -0.05442,0.305042 -0.05441,0.377585 -5e-6,1.153101 0.594129,1.729646 1.782408,1.729646 0.180262,0 0.342402,-0.01814 0.486409,-0.05441 l 1.404817,-0.486409 c 1.153086,3.458188 3.215241,6.285684 6.186482,8.482503 2.971205,2.196808 6.329908,3.295217 10.076115,3.295222 3.70988,-5e-6 7.077922,-1.116275 10.104147,-3.34881 2.917319,-2.161092 4.952547,-4.970727 6.105683,-8.428914 l 1.404823,0.486409 c 0.143951,0.03629 0.306091,0.05442 0.486409,0.05441 1.188223,0 1.782357,-0.576546 1.782407,-1.729646 -5e-5,-0.07255 -0.01819,-0.198406 -0.05441,-0.377585 l -1.295994,-8.158506 z"
       id="flowRoot3192" />
  </g>
</svg>
