<?xml version="1.0" encoding="UTF-8" standalone="no"?>
<!-- Created with Inkscape (http://www.inkscape.org/) -->
<svg
   xmlns:dc="http://purl.org/dc/elements/1.1/"
   xmlns:cc="http://creativecommons.org/ns#"
   xmlns:rdf="http://www.w3.org/1999/02/22-rdf-syntax-ns#"
   xmlns:svg="http://www.w3.org/2000/svg"
   xmlns="http://www.w3.org/2000/svg"
   xmlns:sodipodi="http://sodipodi.sourceforge.net/DTD/sodipodi-0.dtd"
   xmlns:inkscape="http://www.inkscape.org/namespaces/inkscape"
   width="16px"
   height="16px"
   id="svg3427"
   sodipodi:version="0.32"
   inkscape:version="0.46"
   sodipodi:docname="tram_stop.svg"
   inkscape:output_extension="org.inkscape.output.svg.inkscape"
   inkscape:export-filename="/home/matt/Programming/openstreetmap/icons/amenity=airport.png"
   inkscape:export-xdpi="90"
   inkscape:export-ydpi="90">
  <defs
     id="defs3429">
    <inkscape:perspective
       sodipodi:type="inkscape:persp3d"
       inkscape:vp_x="0 : 8 : 1"
       inkscape:vp_y="0 : 1000 : 0"
       inkscape:vp_z="16 : 8 : 1"
       inkscape:persp3d-origin="8 : 5.3333333 : 1"
       id="perspective3435" />
  </defs>
  <sodipodi:namedview
     id="base"
     pagecolor="#ffffff"
     bordercolor="#666666"
     borderopacity="1.0"
     inkscape:pageopacity="0.0"
     inkscape:pageshadow="2"
     inkscape:zoom="11.269514"
     inkscape:cx="0.24569522"
     inkscape:cy="15.656664"
     inkscape:current-layer="layer2"
     showgrid="true"
     inkscape:grid-bbox="true"
     inkscape:document-units="px"
     inkscape:window-width="1280"
     inkscape:window-height="723"
     inkscape:window-x="-6"
     inkscape:window-y="55" />
  <metadata
     id="metadata3432">
    <rdf:RDF>
      <cc:Work
         rdf:about="">
        <dc:format>image/svg+xml</dc:format>
        <dc:type
           rdf:resource="http://purl.org/dc/dcmitype/StillImage" />
        <dc:title>amenity=airport</dc:title>
        <dc:creator>
          <cc:Agent>
            <dc:title>Matt Amos</dc:title>
          </cc:Agent>
        </dc:creator>
        <cc:license
           rdf:resource="http://creativecommons.org/licenses/publicdomain/" />
        <dc:rights>
          <cc:Agent>
            <dc:title>Matt Amos asserts the moral right to be identified as the author of this work.</dc:title>
          </cc:Agent>
        </dc:rights>
      </cc:Work>
      <cc:License
         rdf:about="http://creativecommons.org/licenses/publicdomain/">
        <cc:permits
           rdf:resource="http://creativecommons.org/ns#Reproduction" />
        <cc:permits
           rdf:resource="http://creativecommons.org/ns#Distribution" />
        <cc:permits
           rdf:resource="http://creativecommons.org/ns#DerivativeWorks" />
      </cc:License>
    </rdf:RDF>
  </metadata>
  <g
     id="layer1"
     inkscape:label="Layer 1"
     inkscape:groupmode="layer"
     style="display:inline"
     sodipodi:insensitive="true">
    <rect
       style="fill:#6c7be1;fill-opacity:1;stroke:none;stroke-width:1;stroke-linejoin:round;stroke-miterlimit:4;stroke-dasharray:none;stroke-opacity:1"
       id="rect3946"
       width="16"
       height="16"
       x="0"
       y="0"
       rx="4" />
  </g>
  <g
     inkscape:groupmode="layer"
     id="layer2"
     inkscape:label="top"
     style="display:inline">
    <path
       style="font-size:12px;fill:#ffffff;fill-opacity:1;fill-rule:evenodd;stroke-width:3pt"
       id="path635"
       d="M 7.8743787,2.8268468 C 7.7830971,2.8268468 7.7096085,2.9003319 7.7096085,2.9916134 L 7.7096085,3.0499699 L 7.7096085,3.1203406 L 7.6821492,3.1203406 L 7.7096085,3.1392198 L 7.7096085,3.1924267 L 7.7096085,3.3365988 L 6.5098894,4.1535778 L 6.5064551,4.1535778 L 6.5098894,4.1552932 L 7.7370713,4.9928666 L 6.7501762,4.9928666 C 6.5684778,4.9928666 6.413887,5.1022858 6.346838,5.2588975 L 1.3814722,5.2588975 C 1.1994228,5.2588975 1.0536508,5.4046691 1.0536508,5.5867191 C 1.0536508,5.5867191 0.84340635,6.658256 0.83567685,6.6765938 C 0.72159375,6.9472118 0.65889275,7.2457181 0.65889275,7.5587905 L 0.65889275,9.4193022 L 1.3316957,9.4193022 C 1.3487616,9.4220158 1.3636195,9.4313165 1.3814722,9.4313165 L 1.8946552,9.4313165 L 1.8946552,9.6613044 L 2.6103691,9.6613044 C 2.6181583,9.9322631 2.8387052,10.150461 3.1115419,10.150461 C 3.3844901,10.150461 3.6051073,9.9324291 3.6127094,9.6613044 L 4.3301404,9.6613044 C 4.3379296,9.9322631 4.5567607,10.150461 4.8295934,10.150461 C 5.1025442,10.150461 5.3231588,9.9324291 5.3307649,9.6613044 L 10.732081,9.6613044 C 10.73987,9.9322631 10.958701,10.150461 11.231534,10.150461 C 11.504486,10.150461 11.725099,9.9324291 11.732706,9.6613044 L 12.436406,9.6613044 C 12.444192,9.9322631 12.663027,10.150461 12.935859,10.150461 C 13.208811,10.150461 13.43114,9.9324291 13.438746,9.6613044 L 14.193935,9.6613044 L 14.193935,9.4313165 L 14.679658,9.4296012 C 14.697863,9.4296012 14.713765,9.4221213 14.731149,9.4193022 L 15.424548,9.4193022 L 15.424548,7.5587905 C 15.42455,7.2457181 15.360135,6.9472118 15.24605,6.6765938 L 15.009195,5.5867191 C 15.009195,5.4046691 14.861708,5.2588975 14.679658,5.2588975 L 9.7297403,5.2588975 C 9.6628993,5.1018043 9.5067333,4.9928666 9.3246833,4.9928666 L 8.3120446,4.9928666 L 9.5392263,4.1552932 L 9.5392263,4.1535778 L 8.324059,3.3262998 L 8.324059,3.1924267 L 8.324059,3.1495188 L 8.3669668,3.1203406 L 8.324059,3.1203406 L 8.324059,3.0499699 L 8.324059,2.9916134 C 8.324059,2.9003319 8.2505704,2.8268468 8.1592888,2.8268468 L 7.8743787,2.8268468 z M 8.0219815,3.3571968 L 8.0305651,3.3571968 L 9.1976753,4.1552932 L 8.0254156,4.9551047 L 6.8514405,4.1552932 L 8.0219815,3.3571968 z M 1.5719863,5.8716292 L 1.9718903,5.8716292 C 2.0936021,5.8716292 2.1915827,5.9696139 2.1915827,6.0913215 L 2.1915827,6.9958316 C 2.1915827,7.1175393 2.0936021,7.215524 1.9718903,7.215524 L 1.3643082,7.215524 C 1.2425977,7.215524 1.1446158,7.1175393 1.1446158,6.9958316 C 1.1446158,6.9958316 1.3583674,6.0318052 1.369458,6.0055059 C 1.3805447,5.979203 1.3959439,5.954988 1.4157964,5.9351351 C 1.4356529,5.9152788 1.4598684,5.899883 1.4861672,5.888793 C 1.51247,5.8777066 1.5415567,5.8716292 1.5719863,5.8716292 z M 2.8643857,5.8716292 L 3.384437,5.8716292 C 3.5061448,5.8716292 3.6041293,5.9696139 3.6041293,6.0913215 L 3.6041293,8.93186 C 3.6041293,9.0535712 3.5061448,9.1515524 3.384437,9.1515524 L 2.8643857,9.1515524 C 2.7426792,9.1515524 2.6446933,9.0535712 2.6446933,8.93186 L 2.6446933,6.0913215 C 2.6446933,5.9696139 2.7426792,5.8716292 2.8643857,5.8716292 z M 4.0898524,5.8716292 L 4.6099037,5.8716292 C 4.7316115,5.8716292 4.8295934,5.9696139 4.8295934,6.0913215 L 4.8295934,8.93186 C 4.8295934,9.0535712 4.7316115,9.1515524 4.6099037,9.1515524 L 4.0898524,9.1515524 C 3.968142,9.1515524 3.8701601,9.0535712 3.8701601,8.93186 L 3.8701601,6.0913215 C 3.8701601,5.9696139 3.968142,5.8716292 4.0898524,5.8716292 z M 5.4337441,5.8716292 L 6.6060041,5.8716292 C 6.7277117,5.8716292 6.8256965,5.9696139 6.8256965,6.0913215 L 6.8256965,6.9958316 C 6.8256965,7.1175393 6.7277117,7.215524 6.6060041,7.215524 L 5.4337441,7.215524 C 5.3120363,7.215524 5.2140557,7.1175393 5.2140557,6.9958316 L 5.2140557,6.0913215 C 5.2140557,5.9696139 5.3120363,5.8716292 5.4337441,5.8716292 z M 7.4401434,5.8716292 L 8.6124032,5.8716292 C 8.7341108,5.8716292 8.8320956,5.9696139 8.8320956,6.0913215 L 8.8320956,6.9958316 C 8.8320956,7.1175393 8.7341108,7.215524 8.6124032,7.215524 L 7.4401434,7.215524 C 7.3184357,7.215524 7.2204544,7.1175393 7.2204544,6.9958316 L 7.2204544,6.0913215 C 7.2204544,5.9696139 7.3184357,5.8716292 7.4401434,5.8716292 z M 9.4173643,5.8716292 L 10.589624,5.8716292 C 10.711335,5.8716292 10.809316,5.9696139 10.809316,6.0913215 L 10.809316,6.9958316 C 10.809316,7.1175393 10.711335,7.215524 10.589624,7.215524 L 9.4173643,7.215524 C 9.2956563,7.215524 9.1976753,7.1175393 9.1976753,6.9958316 L 9.1976753,6.0913215 C 9.1976753,5.9696139 9.2956563,5.8716292 9.4173643,5.8716292 z M 11.452942,5.8716292 L 11.972993,5.8716292 C 12.094704,5.8716292 12.192685,5.9696139 12.192685,6.0913215 L 12.192685,8.93186 C 12.192685,9.0535712 12.094704,9.1515524 11.972993,9.1515524 L 11.452942,9.1515524 C 11.331234,9.1515524 11.233253,9.0535712 11.233253,8.93186 L 11.233253,6.0913215 C 11.233253,5.9696139 11.331234,5.8716292 11.452942,5.8716292 z M 12.678408,5.8716292 L 13.198459,5.8716292 C 13.320167,5.8716292 13.418149,5.9696139 13.418149,6.0913215 L 13.418149,8.93186 C 13.418149,9.0535712 13.320167,9.1515524 13.198459,9.1515524 L 12.678408,9.1515524 C 12.556701,9.1515524 12.458716,9.0535712 12.458716,8.93186 L 12.458716,6.0913215 C 12.458716,5.9696139 12.556701,5.8716292 12.678408,5.8716292 z M 14.061776,5.8716292 L 14.4634,5.8716292 C 14.493826,5.8716292 14.522916,5.8777066 14.549215,5.888793 C 14.575518,5.899883 14.598015,5.9152788 14.617871,5.9351351 C 14.637724,5.954988 14.654842,5.979203 14.665928,6.0055059 C 14.677015,6.0318052 14.890766,6.9958316 14.890766,6.9958316 C 14.890766,7.1175393 14.792786,7.215524 14.671078,7.215524 L 14.061776,7.215524 C 13.94007,7.215524 13.842084,7.1175393 13.842084,6.9958316 L 13.842084,6.0913215 C 13.842084,5.9696139 13.94007,5.8716292 14.061776,5.8716292 z" />
  </g>
</svg>
