<?xml version="1.0" encoding="UTF-8" standalone="no"?>
<svg
   xmlns:dc="http://purl.org/dc/elements/1.1/"
   xmlns:cc="http://creativecommons.org/ns#"
   xmlns:rdf="http://www.w3.org/1999/02/22-rdf-syntax-ns#"
   xmlns:svg="http://www.w3.org/2000/svg"
   xmlns="http://www.w3.org/2000/svg"
   xmlns:sodipodi="http://sodipodi.sourceforge.net/DTD/sodipodi-0.dtd"
   xmlns:inkscape="http://www.inkscape.org/namespaces/inkscape"
   height="32"
   width="32"
   id="svg2"
   sodipodi:version="0.32"
   inkscape:version="0.47pre3 r22311"
   sodipodi:docname="zoo.svg"
   inkscape:output_extension="org.inkscape.output.svg.inkscape"
   version="1.1">
  <defs
     id="defs9">
    <inkscape:perspective
       sodipodi:type="inkscape:persp3d"
       inkscape:vp_x="0 : 171.5 : 1"
       inkscape:vp_y="0 : 1000 : 0"
       inkscape:vp_z="477 : 171.5 : 1"
       inkscape:persp3d-origin="238.5 : 114.33333 : 1"
       id="perspective3075" />
  </defs>
  <sodipodi:namedview
     inkscape:window-height="573"
     inkscape:window-width="797"
     inkscape:pageshadow="2"
     inkscape:pageopacity="0.0"
     guidetolerance="10.0"
     gridtolerance="10.0"
     objecttolerance="10.0"
     borderopacity="1.0"
     bordercolor="#666666"
     pagecolor="#ffffff"
     id="base"
     inkscape:zoom="2.1982507"
     inkscape:cx="28.804149"
     inkscape:cy="36.078043"
     inkscape:window-x="0"
     inkscape:window-y="0"
     inkscape:current-layer="svg2"
     showgrid="false"
     inkscape:window-maximized="0" />
  <metadata
     id="metadata4">
    <rdf:RDF>
      <cc:Work
         rdf:about="">
        <dc:title>Clipart by Nicu Buculei - contour_chipmunk</dc:title>
        <dc:description />
        <dc:subject>
          <rdf:Bag>
            <rdf:li>mammal</rdf:li>
            <rdf:li />
            <rdf:li>animal</rdf:li>
          </rdf:Bag>
        </dc:subject>
        <dc:publisher>
          <cc:Agent
             rdf:about="http://www.openclipart.org">
            <dc:title>Nicu Buculei</dc:title>
          </cc:Agent>
        </dc:publisher>
        <dc:creator>
          <cc:Agent>
            <dc:title>Nicu Buculei</dc:title>
          </cc:Agent>
        </dc:creator>
        <dc:rights>
          <cc:Agent>
            <dc:title>Nicu Buculei</dc:title>
          </cc:Agent>
        </dc:rights>
        <dc:date />
        <dc:format>image/svg+xml</dc:format>
        <dc:type
           rdf:resource="http://purl.org/dc/dcmitype/StillImage" />
        <cc:license
           rdf:resource="http://web.resource.org/cc/PublicDomain" />
        <dc:language>en</dc:language>
      </cc:Work>
      <cc:License
         rdf:about="http://web.resource.org/cc/PublicDomain">
        <cc:permits
           rdf:resource="http://web.resource.org/cc/Reproduction" />
        <cc:permits
           rdf:resource="http://web.resource.org/cc/Distribution" />
        <cc:permits
           rdf:resource="http://web.resource.org/cc/DerivativeWorks" />
      </cc:License>
    </rdf:RDF>
  </metadata>
  <path
     d="m 5.7001904,21.31635 c 0.3066837,0.09044 1.0599408,0.01434 0.801763,-0.494459 C 6.3587078,20.539557 5.6847393,20.184135 5.3870428,20.099836 4.9384593,19.972761 4.1847762,20.524276 4.7607481,20.877945 L 4.6354889,21.253721 C 4.1531542,21.023245 4.0156893,20.317912 4.0549576,19.813243 c 0.027609,-0.354921 0.348082,-0.729194 0.4750385,-1.0647 0.3468294,-0.916583 0.6317,-1.817383 0.9014573,-2.755697 0.1078291,-0.375089 0.1397703,-1.084931 0.4658573,-1.332254 0.3055368,-0.231792 0.7747637,-0.26555 1.1178477,-0.436278 0.2528983,-0.125885 0.4181144,-0.384857 0.6901142,-0.468969 0.5840201,-0.18056 1.1593969,-0.134027 1.439539,-0.768714 0.5914723,0.892909 1.0852434,1.724941 1.1833834,2.818326 0.06977,0.777294 -0.4608271,1.574254 -0.6399471,2.317291 -0.125197,0.519386 -0.08662,1.048417 -0.223024,1.565736 -0.1701648,0.645084 -0.5020386,1.241317 -0.6639353,1.878885 -0.097702,0.384608 -0.010144,0.8222 -0.1302066,1.189898 -0.2148817,0.658173 -1.4416052,1.051486 -1.2957417,1.878633 0.06739,0.382228 0.5130612,0.457383 0.830029,0.522268 0.7360218,0.150623 1.5283476,0.05768 2.2546617,-0.05605 0.241875,-0.03789 0.535544,0.0089 0.724373,-0.179934 0.45588,-0.455818 -0.08274,-1.317161 0.06495,-1.851704 0.105781,-0.383104 0.468155,-0.716919 0.657422,-1.0647 0.411474,-0.756314 0.759882,-1.553024 0.995808,-2.37992 l 0.06263,0 c 0.01503,0.728881 0.190958,1.642395 0.470599,2.31729 0.176552,0.426131 0.631179,1.03752 0.618779,1.503107 -0.02129,0.7979 -1.230231,1.319792 -0.650407,2.253471 0.583331,0.939255 1.962056,-0.0057 2.692504,-0.170978 0.400453,-0.09062 0.937437,0.02799 1.133969,-0.456819 0.271311,-0.669133 -0.27939,-1.303445 -0.371769,-1.938821 -0.105781,-0.727128 0.03081,-1.458703 -0.102398,-2.192032 -0.09745,-0.536671 -0.534293,-1.16115 -0.519638,-1.690995 0.01027,-0.372833 0.274944,-0.814309 0.360871,-1.189961 l 2.37992,1.117623 1.002072,0.573373 c 0.0043,0.532351 -0.01021,1.168416 0.08324,1.690996 0.04466,0.249579 0.279014,0.501725 0.207554,0.759696 -0.139351,0.502663 -1.369707,1.018418 -1.092821,1.551018 0.152189,0.292731 0.572308,0.393001 0.864662,0.468156 0.740405,0.190393 2.680229,0.476422 3.224541,-0.217826 0.239871,-0.305945 0.219954,-0.814996 0.22008,-1.183195 3.76e-4,-0.928044 0.0982,-1.911264 -0.125259,-2.818327 0.805916,0.496965 0.98917,1.495655 1.39313,2.317291 0.139914,0.284588 0.431455,0.735897 0.33607,1.063762 -0.147179,0.50567 -1.655736,1.29524 -0.95773,1.977964 0.193525,0.189328 0.545315,0.20342 0.794267,0.279202 0.720365,0.219203 2.906948,0.576943 3.247464,-0.378281 0.31822,-0.892721 0.23699,-2.469169 0.01553,-3.381053 -0.130332,-0.536672 -0.433083,-1.002197 -0.486005,-1.565737 -0.04866,-0.518509 0.310517,-1.043282 0.348846,-1.565737 0.0533,-0.727316 -0.171542,-1.366011 -0.1939,-2.066773 -0.01435,-0.450806 0.136908,-0.915016 0.136908,-1.377849 0.687922,1.823458 -0.03219,3.785388 0.468531,5.636653 0.0729,0.269495 0.101396,1.797842 0.6412,1.643899 0.202419,-0.05768 0.262293,-0.408657 0.221646,-0.579197 -0.177241,-0.744163 -0.49828,-1.402086 -0.500034,-2.192032 -8.45e-4,-0.392812 0.17862,-0.797649 0.222523,-1.18996 0.259223,-2.316792 0.621285,-5.538702 -1.367264,-7.237528 C 26.796186,10.628256 25.835701,10.074974 24.864818,9.4477767 24.105061,8.9569681 23.327516,8.3839591 22.42227,8.1886115 c -0.663999,-0.1432839 -1.391878,0.068475 -2.066774,0.03567 -1.471542,-0.071534 -2.916968,-0.3500671 -4.384063,-0.4878898 -0.66763,-0.062721 -1.328936,0.066 -2.004144,-0.060992 C 12.516468,7.4025429 11.443437,6.306201 10.021622,5.9476285 9.5712539,5.8340589 8.7907657,5.911888 8.3306268,5.9927173 7.8961041,6.0690562 7.6660029,6.3734293 7.3276155,6.6143708 6.3449467,7.3141305 5.0562262,8.4362314 4.5121134,9.5419611 4.1780984,10.22074 4.1422867,11.127846 3.9280066,11.859301 c -0.312327,1.066143 -0.9056602,1.953164 -1.0812796,3.068846 -0.1839239,1.168477 0.09784,2.39589 0.097765,3.56988 -5.68e-5,0.882574 -0.4937652,1.962182 -0.1795279,2.818326 0.439258,1.196786 2.7710847,1.592229 2.9352242,0 z"
     style="fill:#000000;stroke:none"
     id="path6" />
</svg>
