<?xml version="1.0" encoding="UTF-8" standalone="no"?>
<!-- Created with Inkscape (http://www.inkscape.org/) -->
<svg
   xmlns:dc="http://purl.org/dc/elements/1.1/"
   xmlns:cc="http://creativecommons.org/ns#"
   xmlns:rdf="http://www.w3.org/1999/02/22-rdf-syntax-ns#"
   xmlns:svg="http://www.w3.org/2000/svg"
   xmlns="http://www.w3.org/2000/svg"
   xmlns:sodipodi="http://sodipodi.sourceforge.net/DTD/sodipodi-0.dtd"
   xmlns:inkscape="http://www.inkscape.org/namespaces/inkscape"
   version="1.0"
   width="38"
   height="38"
   viewBox="0 0 300 300"
   id="symbol-bowls"
   sodipodi:version="0.32"
   inkscape:version="0.46"
   sodipodi:docname="10pin.svg"
   inkscape:output_extension="org.inkscape.output.svg.inkscape">
  <metadata
     id="metadata6137">
    <rdf:RDF>
      <cc:Work
         rdf:about="">
        <dc:format>image/svg+xml</dc:format>
        <dc:type
           rdf:resource="http://purl.org/dc/dcmitype/StillImage" />
      </cc:Work>
    </rdf:RDF>
  </metadata>
  <sodipodi:namedview
     inkscape:window-height="676"
     inkscape:window-width="701"
     inkscape:pageshadow="2"
     inkscape:pageopacity="0.0"
     guidetolerance="10.0"
     gridtolerance="10.0"
     objecttolerance="10.0"
     borderopacity="1.0"
     bordercolor="#666666"
     pagecolor="#ffffff"
     id="base"
     showgrid="false"
     inkscape:zoom="6.131579"
     inkscape:cx="16.531177"
     inkscape:cy="28.157141"
     inkscape:window-x="196"
     inkscape:window-y="58"
     inkscape:current-layer="symbol-bowls" />
  <defs
     id="defs2474">
    <inkscape:perspective
       sodipodi:type="inkscape:persp3d"
       inkscape:vp_x="0 : 19 : 1"
       inkscape:vp_y="0 : 1000 : 0"
       inkscape:vp_z="38 : 19 : 1"
       inkscape:persp3d-origin="19 : 12.666667 : 1"
       id="perspective6139" />
  </defs>
  <rect
     width="269.52087"
     height="258.24777"
     ry="20.869576"
     x="15.289689"
     y="20.638819"
     id="rect2471"
     style="fill:none;stroke:#000000;stroke-width:14.68965149;stroke-linejoin:round;stroke-miterlimit:4" />
  <g
     id="g6362"
     transform="matrix(0.3893929,0,0,0.3893929,102.82528,-64.469862)">
    <path
       sodipodi:nodetypes="czzzzzzzcc"
       id="path6364"
       d="M 331.94786,761.34772 C 331.94786,761.34772 365.72933,682.89892 364.0866,643.46646 C 362.44387,604.03401 323.28255,544.14307 324.4488,511.20944 C 325.61505,478.27582 348.38424,455.79306 342.30367,436.45548 C 336.2231,417.1179 319.47696,400.16516 302.66586,400.16516 C 285.85477,400.16516 271.9654,417.11791 265.88483,436.45548 C 259.80426,455.79305 282.57345,478.27582 283.7397,511.20944 C 284.90595,544.14307 245.74463,604.03401 244.1019,643.46646 C 242.45917,682.89892 273.38388,761.34772 273.38388,761.34772 L 331.94786,761.34772 z"
       style="fill:#ffffff;fill-opacity:1;fill-rule:evenodd;stroke:#000000;stroke-width:5.01541185;stroke-linecap:butt;stroke-linejoin:miter;stroke-miterlimit:4;stroke-dasharray:none;stroke-opacity:1" />
    <rect
       y="500.23621"
       x="284.65128"
       height="38.222721"
       width="38.880768"
       id="rect6366"
       style="fill:#ff0000;fill-opacity:1;stroke:none;stroke-width:5;stroke-miterlimit:4;stroke-dasharray:none;stroke-opacity:1" />
  </g>
  <g
     id="g6368"
     transform="matrix(0.3893929,0,0,0.3893929,-39.203036,-64.469862)">
    <path
       sodipodi:nodetypes="czzzzzzzcc"
       id="path6370"
       d="M 331.94786,761.34772 C 331.94786,761.34772 365.72933,682.89892 364.0866,643.46646 C 362.44387,604.03401 323.28255,544.14307 324.4488,511.20944 C 325.61505,478.27582 348.38424,455.79306 342.30367,436.45548 C 336.2231,417.1179 319.47696,400.16516 302.66586,400.16516 C 285.85477,400.16516 271.9654,417.11791 265.88483,436.45548 C 259.80426,455.79305 282.57345,478.27582 283.7397,511.20944 C 284.90595,544.14307 245.74463,604.03401 244.1019,643.46646 C 242.45917,682.89892 273.38388,761.34772 273.38388,761.34772 L 331.94786,761.34772 z"
       style="fill:#ffffff;fill-opacity:1;fill-rule:evenodd;stroke:#000000;stroke-width:5.01541185;stroke-linecap:butt;stroke-linejoin:miter;stroke-miterlimit:4;stroke-dasharray:none;stroke-opacity:1" />
    <rect
       y="500.23621"
       x="284.65128"
       height="38.222721"
       width="38.880768"
       id="rect6372"
       style="fill:#ff0000;fill-opacity:1;stroke:none;stroke-width:5;stroke-miterlimit:4;stroke-dasharray:none;stroke-opacity:1" />
  </g>
  <g
     id="g6374"
     transform="matrix(0.3893929,0,0,0.3893929,69.571698,-64.469862)">
    <path
       sodipodi:nodetypes="czzzzzzzcc"
       id="path6376"
       d="M 331.94786,761.34772 C 331.94786,761.34772 365.72933,682.89892 364.0866,643.46646 C 362.44387,604.03401 323.28255,544.14307 324.4488,511.20944 C 325.61505,478.27582 348.38424,455.79306 342.30367,436.45548 C 336.2231,417.1179 319.47696,400.16516 302.66586,400.16516 C 285.85477,400.16516 271.9654,417.11791 265.88483,436.45548 C 259.80426,455.79305 282.57345,478.27582 283.7397,511.20944 C 284.90595,544.14307 245.74463,604.03401 244.1019,643.46646 C 242.45917,682.89892 273.38388,761.34772 273.38388,761.34772 L 331.94786,761.34772 z"
       style="fill:#ffffff;fill-opacity:1;fill-rule:evenodd;stroke:#000000;stroke-width:5.01541185;stroke-linecap:butt;stroke-linejoin:miter;stroke-miterlimit:4;stroke-dasharray:none;stroke-opacity:1" />
    <rect
       y="500.23621"
       x="284.65128"
       height="38.222721"
       width="38.880768"
       id="rect6378"
       style="fill:#ff0000;fill-opacity:1;stroke:none;stroke-width:5;stroke-miterlimit:4;stroke-dasharray:none;stroke-opacity:1" />
  </g>
  <g
     id="g6380"
     transform="matrix(0.3893929,0,0,0.3893929,-5.1064133,-64.469862)">
    <path
       sodipodi:nodetypes="czzzzzzzcc"
       id="path6382"
       d="M 331.94786,761.34772 C 331.94786,761.34772 365.72933,682.89892 364.0866,643.46646 C 362.44387,604.03401 323.28255,544.14307 324.4488,511.20944 C 325.61505,478.27582 348.38424,455.79306 342.30367,436.45548 C 336.2231,417.1179 319.47696,400.16516 302.66586,400.16516 C 285.85477,400.16516 271.9654,417.11791 265.88483,436.45548 C 259.80426,455.79305 282.57345,478.27582 283.7397,511.20944 C 284.90595,544.14307 245.74463,604.03401 244.1019,643.46646 C 242.45917,682.89892 273.38388,761.34772 273.38388,761.34772 L 331.94786,761.34772 z"
       style="fill:#ffffff;fill-opacity:1;fill-rule:evenodd;stroke:#000000;stroke-width:5.01541185;stroke-linecap:butt;stroke-linejoin:miter;stroke-miterlimit:4;stroke-dasharray:none;stroke-opacity:1" />
    <rect
       y="500.23621"
       x="284.65128"
       height="38.222721"
       width="38.880768"
       id="rect6384"
       style="fill:#ff0000;fill-opacity:1;stroke:none;stroke-width:5;stroke-miterlimit:4;stroke-dasharray:none;stroke-opacity:1" />
  </g>
  <g
     id="g3193"
     transform="matrix(0.3893929,0,0,0.3893929,31.811123,-64.469862)">
    <path
       sodipodi:nodetypes="czzzzzzzcc"
       id="path2383"
       d="M 331.94786,761.34772 C 331.94786,761.34772 365.72933,682.89892 364.0866,643.46646 C 362.44387,604.03401 323.28255,544.14307 324.4488,511.20944 C 325.61505,478.27582 348.38424,455.79306 342.30367,436.45548 C 336.2231,417.1179 319.47696,400.16516 302.66586,400.16516 C 285.85477,400.16516 271.9654,417.11791 265.88483,436.45548 C 259.80426,455.79305 282.57345,478.27582 283.7397,511.20944 C 284.90595,544.14307 245.74463,604.03401 244.1019,643.46646 C 242.45917,682.89892 273.38388,761.34772 273.38388,761.34772 L 331.94786,761.34772 z"
       style="fill:#ffffff;fill-opacity:1;fill-rule:evenodd;stroke:#000000;stroke-width:5.01541185;stroke-linecap:butt;stroke-linejoin:miter;stroke-miterlimit:4;stroke-dasharray:none;stroke-opacity:1" />
    <rect
       y="500.23621"
       x="284.65128"
       height="38.222721"
       width="38.880768"
       id="rect3155"
       style="fill:#ff0000;fill-opacity:1;stroke:none;stroke-width:5;stroke-miterlimit:4;stroke-dasharray:none;stroke-opacity:1" />
  </g>
</svg>
