<?xml version="1.0" encoding="UTF-8" standalone="no"?>
<!-- Created with Inkscape (http://www.inkscape.org/) -->
<svg
   xmlns:dc="http://purl.org/dc/elements/1.1/"
   xmlns:cc="http://creativecommons.org/ns#"
   xmlns:rdf="http://www.w3.org/1999/02/22-rdf-syntax-ns#"
   xmlns:svg="http://www.w3.org/2000/svg"
   xmlns="http://www.w3.org/2000/svg"
   xmlns:sodipodi="http://sodipodi.sourceforge.net/DTD/sodipodi-0.dtd"
   xmlns:inkscape="http://www.inkscape.org/namespaces/inkscape"
   version="1.0"
   width="38"
   height="38"
   viewBox="0 0 300 300"
   id="symbol-bowls"
   sodipodi:version="0.32"
   inkscape:version="0.46"
   sodipodi:docname="bicycle.svg"
   inkscape:output_extension="org.inkscape.output.svg.inkscape">
  <metadata
     id="metadata6137">
    <rdf:RDF>
      <cc:Work
         rdf:about="">
        <dc:format>image/svg+xml</dc:format>
        <dc:type
           rdf:resource="http://purl.org/dc/dcmitype/StillImage" />
      </cc:Work>
    </rdf:RDF>
  </metadata>
  <sodipodi:namedview
     inkscape:window-height="778"
     inkscape:window-width="1274"
     inkscape:pageshadow="2"
     inkscape:pageopacity="0.0"
     guidetolerance="10.0"
     gridtolerance="10.0"
     objecttolerance="10.0"
     borderopacity="1.0"
     bordercolor="#666666"
     pagecolor="#ffffff"
     id="base"
     showgrid="false"
     inkscape:zoom="12.263158"
     inkscape:cx="21.428001"
     inkscape:cy="17.400405"
     inkscape:window-x="0"
     inkscape:window-y="0"
     inkscape:current-layer="symbol-bowls" />
  <defs
     id="defs2474">
    <inkscape:perspective
       sodipodi:type="inkscape:persp3d"
       inkscape:vp_x="0 : 19 : 1"
       inkscape:vp_y="0 : 1000 : 0"
       inkscape:vp_z="38 : 19 : 1"
       inkscape:persp3d-origin="19 : 12.666667 : 1"
       id="perspective6139" />
  </defs>
  <rect
     width="269.52087"
     height="258.24777"
     ry="20.869576"
     x="15.289689"
     y="20.638819"
     id="rect2471"
     style="fill:none;stroke:#000000;stroke-width:14.68965149;stroke-linejoin:round;stroke-miterlimit:4" />
  <g
     id="g2873"
     transform="matrix(-1.2702043,0,0,1.2702043,408.61979,-82.064295)">
    <path
       transform="matrix(0.336803,0,0,0.336803,192.5945,42.97304)"
       style="font-size:12px;fill:none;fill-opacity:1;fill-rule:evenodd;stroke:#000000;stroke-width:26;stroke-opacity:1"
       sodipodi:type="arc"
       sodipodi:ry="78.380615"
       sodipodi:rx="78.380615"
       sodipodi:cy="461.96271"
       sodipodi:cx="200.53224"
       id="path596"
       d="M 278.91286,461.96271 A 78.380615,78.380615 0 1 1 122.15163,461.96271 A 78.380615,78.380615 0 1 1 278.91286,461.96271 z" />
    <path
       transform="matrix(0.336803,0,0,0.336803,79.45661,42.45877)"
       style="font-size:12px;fill:none;fill-opacity:1;fill-rule:evenodd;stroke:#000000;stroke-width:26;stroke-opacity:1"
       sodipodi:type="arc"
       sodipodi:ry="78.380615"
       sodipodi:rx="78.380615"
       sodipodi:cy="461.96271"
       sodipodi:cx="200.53224"
       id="path595"
       d="M 278.91286,461.96271 A 78.380615,78.380615 0 1 1 122.15163,461.96271 A 78.380615,78.380615 0 1 1 278.91286,461.96271 z" />
    <path
       style="font-size:12px;fill:none;fill-opacity:1;fill-rule:evenodd;stroke:#000000;stroke-width:7.03076267;stroke-linejoin:round;stroke-opacity:1"
       sodipodi:nodetypes="ccccc"
       id="path594"
       d="M 167.90982,153.1369 L 235.79253,153.47975 L 259.79146,198.0492 L 213.85064,198.0492 L 165.85277,165.47922" />
    <path
       style="font-size:12px;fill:#000000;fill-opacity:1;fill-rule:evenodd;stroke-width:25;stroke-linecap:round"
       sodipodi:nodetypes="ccccscccccsscsccccccccccccssccc"
       id="path593"
       d="M 170.5183,126.42646 C 166.83103,126.42646 164.04394,126.34419 161.1872,130.70844 C 160.3649,132.16329 159.98894,133.93965 160.29257,135.70786 C 160.65681,137.71849 161.84718,139.69391 163.25047,140.86331 C 165.10867,142.41182 166.87215,142.29236 166.58715,143.68438 C 166.22147,145.4705 165.10547,147.95255 163.89944,151.9829 C 162.67523,156.07397 161.22156,161.08105 159.79465,166.01285 C 158.36774,170.94464 156.96703,175.80381 155.85827,179.59022 C 155.30388,181.48342 154.81971,183.10905 154.4479,184.32651 C 154.08565,185.51268 153.76582,186.43407 153.79535,186.36838 C 152.64018,188.40081 152.48294,189.72514 150.54536,191.45502 C 148.37291,193.35632 146.60413,194.7609 145.99026,195.18996 C 144.43106,196.32261 143.70621,198.71294 144.52957,199.89402 C 145.56721,201.50364 147.71021,201.75055 149.27646,201.269 C 150.76366,200.7969 153.11787,199.98597 155.84774,197.72495 L 155.86879,197.69338 L 155.90037,197.67233 C 159.69884,194.41421 161.10411,190.45988 161.24711,190.23109 L 161.44709,189.92586 L 161.58392,189.58906 C 161.91306,188.77884 162.11021,188.06443 162.4996,186.78938 C 162.88899,185.51433 163.38262,183.86707 163.94154,181.95836 C 165.05938,178.14096 166.45298,173.2744 167.87792,168.34942 C 169.30287,163.42444 170.75298,158.44285 171.96166,154.40367 C 173.17034,150.36449 173.93395,147.04714 174.21622,146.34145 C 174.90326,144.62386 175.25425,142.76958 174.78458,140.9105 C 174.31492,139.05142 172.91143,137.55099 171.65157,137.2022 C 168.77584,136.39766 169.53887,134.32918 171.01013,134.32618 L 183.33913,134.30108 L 183.36952,126.42663 C 183.36944,126.42646 175.3668,126.42646 170.5183,126.42646 z" />
    <path
       style="font-size:12px;fill:#ffffff;fill-opacity:1;fill-rule:evenodd;stroke:#000000;stroke-width:8.42007542;stroke-opacity:1"
       id="path599"
       d="M 214.73026,196.65372 L 238.00315,139.68364" />
    <path
       style="font-size:12px;fill:#ffffff;fill-opacity:1;fill-rule:evenodd;stroke:#000000;stroke-width:3.0733273;stroke-linecap:round;stroke-opacity:1"
       id="path600"
       d="M 204.30595,178.47178 L 223.21516,218.47205" />
    <path
       transform="matrix(0.132315,0,0,0.136689,187.5743,134.9894)"
       style="font-size:12px;fill:none;fill-opacity:1;fill-rule:evenodd;stroke:#000000;stroke-width:31.30500031;stroke-opacity:1"
       sodipodi:type="arc"
       sodipodi:ry="78.380615"
       sodipodi:rx="78.380615"
       sodipodi:cy="461.96271"
       sodipodi:cx="200.53224"
       id="path597"
       d="M 278.91286,461.96271 A 78.380615,78.380615 0 1 1 122.15163,461.96271 A 78.380615,78.380615 0 1 1 278.91286,461.96271 z" />
    <path
       style="font-size:12px;fill:#ffffff;fill-opacity:1;fill-rule:evenodd;stroke:#000000;stroke-width:4.29423809;stroke-opacity:1"
       sodipodi:nodetypes="cc"
       id="path601"
       d="M 199.25786,179.69861 L 211.67914,179.81247" />
    <path
       style="font-size:12px;fill:#ffffff;fill-opacity:1;fill-rule:evenodd;stroke:#000000;stroke-width:4.29423809;stroke-opacity:1"
       sodipodi:nodetypes="cc"
       id="path602"
       d="M 216.88312,216.79001 L 229.3044,216.90387" />
    <path
       style="font-size:12px;fill:#000000;fill-opacity:1;fill-rule:evenodd;stroke:#000000;stroke-width:0.33680301pt;stroke-opacity:1"
       sodipodi:nodetypes="cssccc"
       id="path603"
       d="M 249.39728,134.59251 L 220.18494,134.59251 C 219.09402,134.59251 217.68598,136.52227 219.09402,137.80466 C 220.61688,139.254 234.30626,142.22893 234.30626,142.22893 C 234.30626,142.22893 238.06386,143.25924 240.06388,143.01682 C 242.06389,142.77439 248.97303,142.16833 249.39728,134.59251 z" />
  </g>
</svg>
