<?xml version="1.0" encoding="UTF-8" standalone="no"?>
<!-- Created with Inkscape (http://www.inkscape.org/) -->
<svg
   xmlns:dc="http://purl.org/dc/elements/1.1/"
   xmlns:cc="http://creativecommons.org/ns#"
   xmlns:rdf="http://www.w3.org/1999/02/22-rdf-syntax-ns#"
   xmlns:svg="http://www.w3.org/2000/svg"
   xmlns="http://www.w3.org/2000/svg"
   xmlns:sodipodi="http://sodipodi.sourceforge.net/DTD/sodipodi-0.dtd"
   xmlns:inkscape="http://www.inkscape.org/namespaces/inkscape"
   version="1.0"
   width="38"
   height="38"
   viewBox="0 0 300 300"
   id="symbol-bowls"
   sodipodi:version="0.32"
   inkscape:version="0.46"
   sodipodi:docname="chess_set_symbols_igor_k_01.svg"
   inkscape:output_extension="org.inkscape.output.svg.inkscape">
  <metadata
     id="metadata6137">
    <rdf:RDF>
      <cc:Work
         rdf:about="">
        <dc:format>image/svg+xml</dc:format>
        <dc:type
           rdf:resource="http://purl.org/dc/dcmitype/StillImage" />
      </cc:Work>
    </rdf:RDF>
  </metadata>
  <sodipodi:namedview
     inkscape:window-height="778"
     inkscape:window-width="1274"
     inkscape:pageshadow="2"
     inkscape:pageopacity="0.0"
     guidetolerance="10.0"
     gridtolerance="10.0"
     objecttolerance="10.0"
     borderopacity="1.0"
     bordercolor="#666666"
     pagecolor="#ffffff"
     id="base"
     showgrid="false"
     inkscape:zoom="12.263158"
     inkscape:cx="22.283364"
     inkscape:cy="16.699149"
     inkscape:window-x="0"
     inkscape:window-y="0"
     inkscape:current-layer="symbol-bowls" />
  <defs
     id="defs2474">
    <inkscape:perspective
       sodipodi:type="inkscape:persp3d"
       inkscape:vp_x="0 : 19 : 1"
       inkscape:vp_y="0 : 1000 : 0"
       inkscape:vp_z="38 : 19 : 1"
       inkscape:persp3d-origin="19 : 12.666667 : 1"
       id="perspective6139" />
  </defs>
  <rect
     width="269.52087"
     height="258.24777"
     ry="20.869576"
     x="15.289689"
     y="20.638819"
     id="rect2471"
     style="fill:none;stroke:#000000;stroke-width:14.68965149;stroke-linejoin:round;stroke-miterlimit:4" />
  <path
     d="M 89.777561,97.24524 C 89.777561,98.71384 88.757721,99.44813 86.718031,99.44813 C 84.433561,99.44813 83.291341,98.71384 83.291341,97.24524 C 83.291341,90.47346 81.047661,84.96628 76.560341,80.72372 C 72.562541,77.13385 68.687111,75.33892 64.934071,75.33892 C 59.386101,75.33892 55.918611,77.54179 54.531621,81.94754 L 54.042101,85.25185 L 54.042101,85.49661 C 54.042101,88.76011 56.448941,93.28825 61.262621,99.08098 C 62.568021,100.54957 63.669461,101.69179 64.566931,102.50768 C 65.872331,103.56831 68.034411,104.09863 71.053161,104.09863 C 74.235081,104.09863 79.375131,103.48672 86.473251,102.26291 C 93.652991,103.48672 98.833821,104.09863 102.01574,104.09863 C 105.11609,104.09863 107.27816,103.56831 108.502,102.50768 C 111.92868,99.48892 114.78425,95.81747 117.0687,91.49331 C 118.37412,89.04567 119.02682,87.04678 119.02682,85.49661 C 119.02682,80.35658 116.70155,77.13385 112.05105,75.82846 C 110.82723,75.5021 109.52183,75.33892 108.13484,75.33892 C 104.38181,75.33892 100.54717,77.17464 96.630941,80.84611 C 92.062031,84.9255 89.777561,90.39188 89.777561,97.24524 M 116.33442,85.49661 C 116.33442,88.76011 114.09076,92.59474 109.60342,97.00049 L 106.4215,99.69291 L 105.19768,100.42718 C 103.6475,100.67194 102.01574,100.79433 100.3024,100.79433 C 95.243961,100.79433 92.714731,99.77447 92.714731,97.73478 C 92.877901,91.45252 94.754431,86.55724 98.344291,83.04899 C 101.44462,79.94863 104.62657,78.39847 107.89007,78.39847 C 112.05105,78.39847 114.70267,79.90785 115.84488,82.92659 L 116.33442,85.49661 M 104.70816,116.58158 C 104.70816,114.46028 98.711441,113.39965 86.718031,113.39965 C 83.454521,113.39965 80.558141,113.52202 78.028921,113.76679 L 75.091761,114.01156 C 70.686021,114.58267 68.483141,115.39854 68.483141,116.45918 C 68.483141,117.683 69.584581,118.29491 71.787451,118.29491 L 86.595641,117.07109 L 101.28147,118.29491 C 103.56591,118.29491 104.70816,117.7238 104.70816,116.58158 M 111.56153,119.51873 C 111.39835,125.06671 103.07639,127.8407 86.595641,127.8407 C 70.278081,127.8407 61.996911,125.06671 61.752151,119.51873 C 61.670561,114.29711 60.895471,109.64661 59.426891,105.56722 C 58.529431,103.36435 56.816081,100.54957 54.286861,97.12288 C 51.104931,92.79871 49.513971,88.9641 49.513971,85.61899 C 49.513971,80.39737 51.757641,76.35878 56.244971,73.50319 C 58.774191,71.87144 61.588971,71.05557 64.689311,71.05557 C 68.931871,71.05557 72.970471,72.60574 76.805101,75.70606 C 76.805101,71.95303 77.172251,69.38301 77.906541,67.99603 C 78.477651,66.44585 80.354171,64.56932 83.536101,62.36646 L 83.536101,59.55167 L 78.518451,56.49213 L 78.518451,52.08638 L 83.046571,52.08638 L 84.515151,47.55827 L 88.676131,47.55827 L 90.267091,52.08638 L 94.672831,52.08638 L 94.672831,56.49213 L 89.777561,59.55167 L 89.777561,62.36646 C 92.877901,64.65091 94.795211,66.60902 95.529501,68.24078 L 96.386171,71.78984 C 96.467781,72.76889 96.549361,74.07431 96.630941,75.70606 C 100.46557,72.60574 104.4226,71.05557 108.502,71.05557 C 113.96837,71.05557 118.21094,73.13605 121.22969,77.29703 C 122.94305,79.74467 123.79971,82.51865 123.79971,85.61899 C 123.79971,88.9641 122.20875,92.83951 119.02682,97.24524 L 116.21203,101.16148 C 113.1933,105.73039 111.64313,111.84948 111.56153,119.51873 M 56.856871,85.49661 C 56.856871,82.06993 58.570221,79.86706 61.996911,78.888 C 62.975961,78.56164 63.995811,78.39847 65.056451,78.39847 C 68.483141,78.39847 71.746661,79.94863 74.846991,83.04899 C 78.355271,86.63884 80.191001,91.53411 80.354171,97.73478 C 80.435761,99.52972 78.559241,100.54957 74.724611,100.79433 C 74.153501,100.79433 73.541591,100.79433 72.888881,100.79433 C 71.257131,100.79433 69.584581,100.67194 67.871231,100.42718 C 65.178841,99.12177 62.486441,96.55177 59.794041,92.71713 C 57.835931,89.86156 56.856871,87.45472 56.856871,85.49661"
     id="text1061"
     style="font-size:12px;font-style:normal;font-weight:normal;fill:#000000;fill-opacity:1;stroke:none;stroke-width:1pt;stroke-linecap:butt;stroke-linejoin:miter;stroke-opacity:1;font-family:Bitstream Vera Sans" />
  <path
     d="M 190.87047,114.37871 C 190.87047,115.68412 191.80873,116.33682 193.68525,116.33682 L 202.12959,115.72491 C 202.12949,115.72491 204.57712,115.60252 209.4725,115.35777 L 211.30822,115.35777 L 225.62688,116.09207 L 228.56405,116.33682 C 230.44044,116.33682 231.37873,115.68412 231.37883,114.37871 C 231.37873,112.01268 225.91234,110.70727 214.97966,110.4625 L 211.18584,110.4625 C 201.9663,110.4625 195.80652,111.15601 192.70618,112.54299 C 191.48238,113.03252 190.87047,113.64443 190.87047,114.37871 M 175.57274,63.223131 C 174.02256,63.223131 173.04353,63.998231 172.63558,65.548401 C 172.55399,65.793161 172.51319,66.037911 172.51319,66.282701 C 172.51319,67.832861 173.28829,68.811911 174.83846,69.219841 C 175.08321,69.301431 175.32797,69.342231 175.57274,69.342231 C 177.53084,69.342231 178.5099,68.322381 178.5099,66.282701 C 178.5099,64.242991 177.53084,63.223131 175.57274,63.223131 M 191.60474,55.513081 C 189.48347,55.513081 188.42284,56.532941 188.42284,58.572631 C 188.42284,60.612341 189.48347,61.632181 191.60474,61.632181 C 193.56286,61.632181 194.54191,60.612341 194.54191,58.572631 C 194.54191,56.532941 193.56286,55.513081 191.60474,55.513081 M 230.64454,55.513081 C 229.25744,55.513081 228.31917,56.206591 227.82976,57.593571 L 227.70737,58.572631 C 227.70727,60.612341 228.68633,61.632181 230.64454,61.632181 C 232.68412,61.632181 233.70398,60.612341 233.70407,58.572631 C 233.70398,56.532941 232.68412,55.513081 230.64454,55.513081 M 246.55417,63.223131 C 244.59593,63.223131 243.6169,64.242991 243.61701,66.282701 C 243.6169,68.322381 244.59593,69.342231 246.55417,69.342231 C 248.59376,69.342231 249.6136,68.322381 249.61372,66.282701 C 249.6136,64.732531 248.83853,63.753471 247.28845,63.345521 C 247.04359,63.263931 246.79882,63.223131 246.55417,63.223131 M 237.74267,121.72163 C 237.74256,124.00609 233.5408,125.59705 225.13737,126.49453 L 213.26632,127.2288 L 211.06345,127.2288 C 201.10964,127.2288 193.52206,126.37213 188.30044,124.6588 C 185.77122,123.9245 184.50661,122.94544 184.50661,121.72163 C 184.50661,119.35559 185.15931,116.66318 186.46472,113.64443 C 187.36219,111.84949 187.81093,110.58488 187.81093,109.8506 C 187.81093,108.30044 185.9344,105.28166 182.18135,100.79435 C 180.14166,98.428291 178.95865,96.796531 178.63229,95.899051 C 178.63229,95.409541 178.38753,94.308101 177.89799,92.594761 L 176.30703,86.475671 C 175.2464,82.477861 174.5529,78.235311 174.22654,73.747971 C 170.47351,72.197811 168.59699,69.709381 168.59699,66.282701 C 168.59699,63.345521 169.94318,61.265041 172.63558,60.041231 C 173.53305,59.633281 174.51209,59.429301 175.57274,59.429301 C 178.26514,59.429301 180.26404,60.653131 181.56945,63.100771 C 182.14058,64.161391 182.42613,65.222051 182.42613,66.282701 L 181.81422,70.933201 C 181.81422,74.604641 184.42501,79.091981 189.64665,84.395191 C 190.05457,81.050091 190.25856,77.541811 190.25856,73.870341 C 190.25856,68.403971 189.2795,64.936491 187.3214,63.467911 C 187.15822,63.304721 186.99503,63.182361 186.83188,63.100771 C 185.36329,62.203291 184.629,60.612341 184.629,58.327871 C 184.629,55.309131 186.01598,53.228631 188.78997,52.086401 C 189.68744,51.678461 190.6257,51.474491 191.60474,51.474491 C 194.46032,51.474491 196.50003,52.779911 197.72385,55.390701 C 198.21336,56.288181 198.45802,57.267221 198.45813,58.327871 L 197.60145,63.590291 C 197.60145,68.159211 199.84502,75.134951 204.33246,84.517571 C 206.04569,76.848301 206.90239,70.974001 206.90249,66.894601 C 206.90239,63.467911 206.29046,60.326781 205.06676,57.471211 C 204.57712,56.410561 204.33237,55.594681 204.33246,55.023571 C 204.33237,52.004811 205.67855,49.924331 208.37105,48.782081 C 209.26841,48.374151 210.20668,48.170171 211.18584,48.170171 C 214.04131,48.170171 216.04019,49.516381 217.18254,52.208791 C 217.59037,53.106261 217.79436,54.044511 217.79444,55.023571 C 217.79436,55.186741 217.10085,57.348821 215.71396,61.509801 C 215.3875,62.570431 215.22433,64.365381 215.22443,66.894601 C 215.22433,70.974001 216.08099,76.848301 217.79444,84.517571 C 222.20009,75.216541 224.40297,68.240791 224.40307,63.590291 L 223.66877,58.450271 L 223.66877,58.327871 C 223.66866,55.309131 225.05567,53.228631 227.82976,52.086401 C 228.72712,51.678461 229.66538,51.474491 230.64454,51.474491 C 233.50001,51.474491 235.5397,52.779911 236.76362,55.390701 C 237.25305,56.288181 237.49781,57.267221 237.49791,58.327871 C 237.49781,60.612341 236.7635,62.244091 235.29503,63.223131 C 233.01047,64.691731 231.86826,68.281591 231.86835,73.992731 C 231.86826,77.582601 232.0722,81.050091 232.48026,84.395191 C 237.70176,79.091981 240.31259,74.604641 240.31269,70.933201 L 239.70078,66.282701 C 239.70069,63.427111 241.0061,61.387411 243.61701,60.163591 C 244.51437,59.674081 245.49342,59.429301 246.55417,59.429301 C 249.49123,59.429301 251.57171,60.734701 252.79563,63.345521 L 253.52992,65.670791 L 253.52992,66.282701 C 253.52983,69.546191 251.65329,72.034611 247.90037,73.747971 C 247.41074,79.377531 246.02374,86.271711 243.73938,94.430481 C 243.57611,95.083191 243.49451,95.572711 243.49462,95.899051 C 243.49451,96.470171 242.88261,97.408441 241.65888,98.713851 L 240.19032,100.54956 C 236.27399,105.0369 234.31588,108.13725 234.31598,109.8506 C 234.31588,110.34012 235.29494,112.86935 237.25315,117.43827 C 237.57942,119.07001 237.74256,120.49782 237.74267,121.72163 M 211.18584,51.719261 C 209.63556,51.719261 208.65651,52.494351 208.24866,54.044511 C 208.16697,54.289271 208.12619,54.534031 208.1263,54.778791 C 208.12619,56.328971 208.90127,57.308021 210.45153,57.715971 C 210.6962,57.797561 210.94097,57.838361 211.18584,57.838361 C 213.14385,57.838361 214.12289,56.818501 214.123,54.778791 C 214.12289,53.310221 213.42941,52.331151 212.04249,51.841641 C 211.79764,51.760061 211.51209,51.719261 211.18584,51.719261 M 233.21455,99.448151 C 233.21446,96.837331 225.87155,95.531911 211.18584,95.531911 C 196.41844,95.531911 189.03474,96.878121 189.03474,99.570531 C 189.03474,100.71275 190.09536,101.28386 192.21665,101.28386 C 194.66431,101.28386 197.72385,101.0799 201.3953,100.67196 L 209.35011,100.4272 L 211.30822,100.4272 C 213.59257,100.4272 217.91671,100.63116 224.28068,101.03911 L 230.27738,101.28386 C 232.2354,101.28386 233.21446,100.67196 233.21455,99.448151"
     id="path1742"
     style="font-size:12px;font-style:normal;font-weight:normal;fill:#000000;fill-opacity:1;stroke:none;stroke-width:1pt;stroke-linecap:butt;stroke-linejoin:miter;stroke-opacity:1;font-family:Bitstream Vera Sans" />
  <path
     d="M 211.06343,247.96397 C 194.82746,247.96397 186.58708,245.2308 186.34232,239.7644 C 185.93438,232.25832 184.66976,226.58797 182.54848,222.75333 C 181.65102,221.20317 180.38641,219.32665 178.75465,217.12377 C 175.98066,213.45233 174.4305,210.35199 174.10414,207.82276 C 174.02255,207.17006 173.98176,206.47655 173.98176,205.74226 C 173.98176,200.60224 176.14383,196.56365 180.46798,193.62648 C 181.52863,192.97377 182.63006,192.44345 183.7723,192.03551 C 188.09645,190.48534 192.37981,190.7301 196.62238,192.76981 C 198.17255,193.50409 199.72271,194.48314 201.27288,195.70696 L 201.39527,195.82935 C 201.39527,194.116 201.47685,192.28028 201.64004,190.32219 C 201.64004,189.75105 201.92559,188.97598 202.4967,187.99691 C 203.80211,185.87564 205.35228,184.20307 207.1472,182.97927 C 207.47355,182.81608 207.7999,182.61211 208.12626,182.36736 L 208.12626,179.43019 L 203.10861,176.49304 L 203.10861,172.0873 L 207.63674,172.0873 L 209.22771,167.43677 L 212.89915,167.43677 L 214.49012,172.0873 L 219.01824,172.0873 L 219.01824,176.49304 L 214.0006,179.43019 L 214.0006,182.36736 C 218.24316,185.05975 220.40524,187.75215 220.48682,190.44455 C 220.64999,192.0763 220.73158,193.87124 220.73158,195.82935 L 220.85397,195.70696 C 225.994,191.3828 231.37881,189.99582 237.00837,191.546 C 238.47696,191.95391 239.86395,192.56582 241.16936,193.38172 C 245.73827,196.1557 248.06354,200.27589 248.14514,205.74226 C 248.14514,209.00579 246.51337,212.88121 243.24985,217.36853 C 240.55744,221.12157 238.8849,223.85478 238.23219,225.56811 C 236.84521,229.23955 236.02931,233.97165 235.78456,239.7644 C 235.6214,245.2308 227.381,247.96397 211.06343,247.96397 M 211.06343,206.72132 L 214.61251,201.09176 C 215.18363,199.86794 215.63234,198.72572 215.95869,197.66507 C 216.12188,197.09396 216.20347,195.91094 216.20347,194.116 C 216.20347,189.30233 214.53092,186.89547 211.1858,186.89547 C 207.67753,186.89547 205.92339,189.30233 205.92339,194.116 C 205.92339,195.91094 206.00498,197.09396 206.16815,197.66507 C 206.82085,199.86794 208.20785,202.47876 210.32913,205.4975 C 210.81867,206.06862 211.06343,206.47655 211.06343,206.72132 M 243.73939,206.47655 C 243.73939,202.80511 242.51558,199.99033 240.0679,198.03222 C 238.02822,196.31887 235.6214,195.46221 232.84738,195.46221 C 229.33913,195.46221 225.54527,197.25712 221.46588,200.847 C 216.6522,205.00798 213.91901,210.63755 213.2663,217.73568 C 213.2663,218.30679 214.77567,218.95949 217.79442,219.69379 C 221.3027,220.3465 227.25861,220.67285 235.66217,220.67285 L 241.16936,213.32994 C 242.88271,210.71914 243.73939,208.43467 243.73939,206.47655 M 211.06343,222.99809 C 209.02372,223.89558 202.82305,224.67065 192.4614,225.32335 C 190.91123,225.40495 189.64662,225.48652 188.66756,225.56811 C 189.48345,228.66845 190.01377,232.09513 190.25853,235.84818 C 195.88809,234.05324 202.82305,233.15579 211.06343,233.15579 C 219.46697,233.15579 226.40195,234.05324 231.86835,235.84818 C 232.11311,231.76879 232.64343,228.3421 233.45931,225.56811 L 215.34678,224.09953 C 213.79662,223.85478 212.36883,223.48763 211.06343,222.99809 M 178.3875,206.47655 C 178.3875,209.00579 180.38641,212.84042 184.38421,217.98044 C 185.36326,219.20426 186.05676,220.10174 186.46469,220.67285 L 188.66756,220.67285 C 197.07111,220.67285 203.1902,220.10174 207.02483,218.95949 C 208.24865,218.63315 208.86056,218.22522 208.86056,217.73568 C 208.20785,210.63755 205.47466,205.00798 200.66098,200.847 C 196.66318,197.25712 192.86934,195.46221 189.27947,195.46221 C 188.13725,195.46221 186.91343,195.70696 185.60802,196.1965 C 182.3445,197.01237 180.14163,199.17444 178.99941,202.68272 L 178.3875,205.98704 L 178.3875,206.47655 M 211.06343,243.55824 C 218.73268,243.55824 224.03591,243.0687 226.97306,242.08966 C 227.70736,241.84489 228.07451,241.55932 228.07451,241.23297 C 228.07451,239.11169 222.44495,238.05105 211.1858,238.05105 C 206.86165,238.05105 202.65989,238.33663 198.5805,238.90774 C 195.56173,239.39725 194.05236,240.17235 194.05236,241.23297 C 194.05236,242.45679 198.86605,243.23189 208.49341,243.55824 C 209.47247,243.55824 210.32913,243.55824 211.06343,243.55824"
     id="path1721"
     style="font-size:12px;font-style:normal;font-weight:normal;fill:#000000;fill-opacity:1;stroke:none;stroke-width:1pt;stroke-linecap:butt;stroke-linejoin:miter;stroke-opacity:1;font-family:Bitstream Vera Sans" />
  <path
     d="M 83.903253,219.69379 L 89.288063,219.69379 C 90.511773,219.69379 91.980353,219.73457 93.693803,219.81616 L 105.80958,220.55046 L 105.93197,220.55046 C 107.40046,220.55046 108.13473,220.34647 108.13484,219.93855 L 108.13484,219.44901 C 108.13473,217.00138 102.70916,215.41042 91.858053,214.67614 C 89.899843,214.51295 88.186513,214.43136 86.718043,214.43136 C 78.722323,214.43136 72.562543,215.24725 68.238393,216.87901 C 66.280283,217.61328 65.301223,218.46996 65.301223,219.44901 L 65.301223,219.93855 C 65.301223,220.34647 66.035523,220.55046 67.504103,220.55046 L 83.903253,219.69379 M 106.54388,225.20096 C 100.09834,224.38509 93.489723,223.97714 86.718043,223.97714 C 79.619793,223.97714 73.011263,224.38509 66.892183,225.20096 C 67.871243,226.01683 68.360763,227.6078 68.360763,229.97386 C 68.360763,231.52402 68.116003,232.46228 67.626493,232.78863 C 72.521743,231.89117 78.885523,231.44243 86.718043,231.44243 C 94.550363,231.44243 100.91421,231.89117 105.80958,232.78863 C 105.31995,232.46228 105.07519,231.52402 105.07529,229.97386 C 105.07519,227.6078 105.56472,226.01683 106.54388,225.20096 M 86.718043,235.72579 C 82.556953,235.72579 77.906443,235.92976 72.766513,236.33771 C 68.768703,236.66405 66.769793,237.60233 66.769793,239.15248 C 66.769793,241.19218 73.419203,242.21202 86.718043,242.21202 C 100.01675,242.21202 106.66616,241.19218 106.66625,239.15248 C 106.66616,238.49978 106.13584,237.88786 105.07529,237.31675 C 101.97485,236.25612 95.855763,235.72579 86.718043,235.72579 M 86.718043,171.72013 C 84.678223,171.72013 83.658383,172.69918 83.658503,174.65729 C 83.658383,176.77857 84.678223,177.83922 86.718043,177.83922 C 88.676033,177.83922 89.655093,176.77857 89.655193,174.65729 C 89.655093,172.69918 88.676033,171.72013 86.718043,171.72013 M 86.718043,168.17107 C 89.655093,168.17107 91.694783,169.51725 92.837113,172.20966 L 93.449023,174.65729 L 93.449023,175.02445 C 93.448913,175.51396 93.122573,176.53382 92.469973,178.08398 C 91.327643,181.42909 90.756533,184.32545 90.756623,186.77308 C 90.756533,190.77089 91.653993,196.68602 93.449023,204.51844 C 97.854663,195.21744 100.05755,188.20088 100.05765,183.46877 L 99.323363,178.20636 C 99.323233,175.35079 100.58785,173.31109 103.1172,172.08727 C 104.01454,171.59775 104.99359,171.353 106.05434,171.353 C 108.99142,171.353 111.0719,172.65838 112.2958,175.2692 C 112.78525,176.24826 113.03001,177.22731 113.03011,178.20636 C 113.03001,180.32765 112.29572,182.0002 110.82723,183.22402 C 108.62426,185.42689 107.48202,189.01675 107.40055,193.9936 C 107.40046,196.11491 107.6044,199.54159 108.01246,204.27368 C 113.31556,198.8073 115.96716,194.36075 115.96727,190.93407 L 115.35538,186.16117 C 115.35524,183.46877 116.57906,181.46988 119.02682,180.16448 C 120.00577,179.59336 121.0256,179.30779 122.08637,179.30779 C 124.86025,179.30779 126.94072,180.57241 128.32781,183.10163 L 129.06212,185.42689 L 129.06212,186.16117 C 129.06203,189.50629 127.18549,192.03551 123.43257,193.74884 C 123.26928,197.25712 121.92308,204.15129 119.39397,214.43136 C 119.23068,214.9209 119.1083,215.36962 119.02682,215.77756 C 119.02671,216.91979 117.72131,218.8779 115.11059,221.65188 C 111.60221,225.16017 109.84808,227.89335 109.84818,229.85147 C 109.84808,230.74892 110.82714,233.15579 112.78535,237.07199 C 113.11162,237.80629 113.27476,238.90771 113.27486,240.3763 L 113.27486,241.23297 C 113.19317,241.47773 113.15238,241.76329 113.1525,242.08963 L 113.1525,242.21202 L 113.27486,242.3344 C 113.27476,245.27156 105.40154,246.90332 89.655193,247.22967 C 88.594463,247.22967 87.574613,247.22967 86.595653,247.22967 L 81.455633,247.10729 L 81.333243,247.10729 C 73.663883,246.86252 67.830443,246.20983 63.832663,245.14917 C 61.303423,244.4149 60.038813,243.47664 60.038813,242.3344 C 60.120403,242.25282 60.120403,241.76329 60.038813,240.86582 C 59.957213,240.70265 59.957213,240.53947 60.038813,240.3763 C 60.038813,238.49978 60.650723,236.33771 61.874543,233.89006 C 62.853603,231.93197 63.343113,230.58577 63.343113,229.85147 C 63.343113,228.54605 62.649633,226.99589 61.262633,225.20096 L 55.265913,218.34758 C 54.613233,217.45012 54.286863,216.59343 54.286863,215.77756 C 51.757633,205.41591 50.329873,198.68493 50.003503,195.58457 C 49.921913,194.93186 49.881123,194.31995 49.881123,193.74884 C 46.128083,192.03551 44.251563,189.50629 44.251563,186.16117 C 44.251563,183.46877 45.475383,181.46988 47.923003,180.16448 C 48.983653,179.59336 50.044313,179.30779 51.104933,179.30779 C 53.960513,179.30779 56.000213,180.6132 57.224043,183.22402 C 57.713553,184.12149 57.958323,185.10054 57.958323,186.16117 L 57.346403,190.93407 C 57.346403,194.52393 59.957213,198.97047 65.178833,204.27368 C 65.586773,200.68381 65.790753,197.25712 65.790753,193.9936 C 65.790753,189.50629 65.260423,186.52831 64.199803,185.05974 C 63.791853,184.48863 63.179943,183.83593 62.364053,183.10163 C 60.895473,182.12258 60.161193,180.49083 60.161193,178.20636 C 60.161193,175.35079 61.507393,173.27031 64.199803,171.96491 C 65.097263,171.55695 66.076323,171.353 67.136943,171.353 C 69.992523,171.353 72.032233,172.65838 73.256043,175.2692 C 73.745463,176.16666 73.990223,177.14573 73.990323,178.20636 L 73.256043,183.34639 L 73.256043,183.46877 C 73.256043,188.11928 75.458793,195.13585 79.864673,204.51844 C 81.577903,197.09396 82.434563,191.17882 82.434663,186.77308 C 82.434563,183.50958 81.822663,180.40924 80.598943,177.47207 C 80.109323,176.32985 79.864553,175.51396 79.864673,175.02445 C 79.864553,172.16886 81.169953,170.12918 83.780863,168.90534 C 84.678223,168.41583 85.657273,168.17107 86.718043,168.17107 M 122.08637,183.22402 C 120.78085,183.22402 119.8426,183.87673 119.27158,185.18213 C 119.18989,185.50849 119.14909,185.83482 119.14919,186.16117 C 119.14909,187.79293 119.88337,188.81279 121.35206,189.22073 C 121.59673,189.3023 121.84151,189.3431 122.08637,189.3431 C 124.12594,189.3431 125.1458,188.28247 125.14591,186.16117 C 125.1458,184.20308 124.12594,183.22402 122.08637,183.22402 M 106.05434,175.39159 C 104.66725,175.39159 103.72899,176.08509 103.23957,177.47207 L 103.1172,178.45113 C 103.11708,179.9197 103.81057,180.89876 105.19768,181.38829 C 105.44233,181.46988 105.72789,181.51067 106.05434,181.51067 C 108.17553,181.51067 109.23618,180.49083 109.23627,178.45113 C 109.23618,176.41145 108.17553,175.39159 106.05434,175.39159 M 67.136943,175.39159 C 65.097263,175.39159 64.077403,176.41145 64.077403,178.45113 C 64.077403,180.49083 65.097263,181.51067 67.136943,181.51067 C 69.095063,181.51067 70.074113,180.49083 70.074113,178.45113 C 70.074113,176.41145 69.095063,175.39159 67.136943,175.39159 M 51.104933,183.22402 C 49.065253,183.22402 48.045393,184.20308 48.045393,186.16117 C 48.045393,188.28247 49.065253,189.3431 51.104933,189.3431 C 53.063043,189.3431 54.042103,188.28247 54.042103,186.16117 C 54.042103,184.77419 53.348613,183.83593 51.961623,183.34639 C 51.716833,183.26482 51.431293,183.22402 51.104933,183.22402 M 86.718043,191.05646 C 85.575693,198.23618 84.107123,203.417 82.312293,206.59893 L 80.476573,209.5361 L 80.476573,209.65849 C 80.231693,209.41371 79.171053,208.18989 77.294643,205.98702 C 74.928493,203.21303 72.440153,197.95062 69.829353,190.19979 C 69.992523,191.342 70.074113,192.52503 70.074113,193.74884 C 70.074113,197.58348 69.380623,203.4986 67.993623,211.49421 C 63.587883,208.88339 59.304533,204.72241 55.143533,199.01125 C 56.530533,206.02782 57.591193,210.63753 58.325463,212.8404 C 58.814993,214.47216 59.426913,215.41042 60.161193,215.65517 C 66.851383,211.82057 75.703573,209.90325 86.718043,209.90325 C 97.813873,209.90325 106.66616,211.82057 113.27486,215.65517 C 114.74334,215.16566 116.3751,209.61769 118.17014,199.01125 C 113.92748,204.88559 109.68489,209.04658 105.44244,211.49421 C 104.05533,204.39605 103.36185,198.8073 103.36196,194.72791 C 103.36185,193.66727 103.44343,192.15789 103.60672,190.19979 C 101.97485,195.09505 100.09834,199.45999 97.977163,203.29463 C 96.834823,205.00796 95.570203,206.63973 94.183313,208.18989 C 93.530523,208.84259 93.122573,209.33213 92.959503,209.65849 L 90.267093,204.88559 C 90.185433,204.55924 90.063033,204.23289 89.899963,203.90653 C 89.247163,202.11161 88.186513,197.82824 86.718043,191.05646"
     id="path1715"
     style="font-size:12px;font-style:normal;font-weight:normal;fill:#000000;fill-opacity:1;stroke:none;stroke-width:1pt;stroke-linecap:butt;stroke-linejoin:miter;stroke-opacity:1;font-family:Bitstream Vera Sans" />
</svg>
